{
  "asset": {
    "version": "2.0",
    "generator": "THREE.GLTFExporter"
  },
  "scenes": [
    {
      "nodes": [
        2
      ],
      "name": "AuxScene"
    }
  ],
  "scene": 0,
  "nodes": [
    {
      "matrix": [
        0.7,
        0,
        0,
        0,
        0,
        0.7,
        0,
        0,
        0,
        0,
        0.7,
        0,
        76.1197967529297,
        97.6377944946289,
        3.42508697509766,
        1
      ],
      "name": "LCM_gas_tank_low001",
      "mesh": 0
    },
    {
      "matrix": [
        2.54,
        0,
        0,
        0,
        0,
        2.54,
        0,
        0,
        0,
        0,
        2.54,
        0,
        0,
        0,
        101.300270233154,
        1
      ],
      "name": "LCM_work",
      "children": [
        0
      ]
    },
    {
      "children": [
        1
      ]
    }
  ],
  "bufferViews": [
    {
      "buffer": 0,
      "byteOffset": 0,
      "byteLength": 13536,
      "target": 34962,
      "byteStride": 12
    },
    {
      "buffer": 0,
      "byteOffset": 13536,
      "byteLength": 13536,
      "target": 34962,
      "byteStride": 12
    },
    {
      "buffer": 0,
      "byteOffset": 27072,
      "byteLength": 9024,
      "target": 34962,
      "byteStride": 8
    },
    {
      "buffer": 0,
      "byteOffset": 36096,
      "byteLength": 2256,
      "target": 34963
    }
  ],
  "buffers": [
    {
      "byteLength": 38352,
      "uri": "data:application/octet-stream;base64,"
    }
  ],
  "accessors": [
    {
      "bufferView": 0,
      "componentType": 5126,
      "count": 1128,
      "max": [
        6.4683709144592285,
        6.50084114074707,
        10.86223316192627
      ],
      "min": [
        -6.4683709144592285,
        -6.4359025955200195,
        -61.86540985107422
      ],
      "type": "VEC3"
    },
    {
      "bufferView": 1,
      "componentType": 5126,
      "count": 1128,
      "max": [
        1,
        1,
        1
      ],
      "min": [
        -1,
        -1,
        -1
      ],
      "type": "VEC3"
    },
    {
      "bufferView": 2,
      "componentType": 5126,
      "count": 1128,
      "max": [
        0.9734158515930176,
        0.9909329414367676
      ],
      "min": [
        0.07509490847587585,
        0.013725693337619305
      ],
      "type": "VEC2"
    },
    {
      "bufferView": 3,
      "componentType": 5123,
      "count": 1128,
      "max": [
        1127
      ],
      "min": [
        0
      ],
      "type": "SCALAR"
    }
  ],
  "materials": [
    {
      "pbrMetallicRoughness": {
        "baseColorFactor": [
          0.2,
          0,
          1,
          1
        ],
        "metallicFactor": 0.5,
        "roughnessFactor": 0.5
      },
      "name": "gaztank"
    }
  ],
  "meshes": [
    {
      "primitives": [
        {
          "mode": 4,
          "attributes": {
            "POSITION": 0,
            "NORMAL": 1,
            "TEXCOORD_0": 2
          },
          "indices": 3,
          "material": 0
        }
      ]
    }
  ]
}